<svg width="891" height="805" viewBox="0 0 891 805" fill="none" xmlns="http://www.w3.org/2000/svg">
<path d="M61.5 109C53.811 120.676 69.189 97.3241 61.5 109ZM61.5 109C52.2066 123.112 55.4789 138.037 55.3381 154.234C55.0892 182.859 53.4843 209.248 47.7992 237.605C34.3682 304.599 13.6796 372.583 21.8567 441.598C26.942 484.518 32.8763 526.354 42.256 568.428C51.7528 611.028 58.9366 653.647 69.3072 696.145C73.828 714.672 77.2895 726.004 77.2895 744.705C77.2895 756.049 80.6085 760.545 92.5889 764.217C103.88 767.677 115.149 770.115 126.957 770.204C148.545 770.365 169.626 774.195 191.148 774.195C233.577 774.195 275.906 772.199 318.311 772.199C359.17 772.199 399.717 761.75 440.596 765.215C471.32 767.818 501.819 772.902 532.615 775.193C576.834 778.482 621.463 782.354 665.764 783.951C692.563 784.917 717.36 779.757 743.592 775.082C767.516 770.818 793.047 778.445 816.763 772.864C825.015 770.923 841.43 766.053 846.032 758.23C861.914 731.231 874.392 694.24 869.092 661.777C864.034 630.797 867.54 597.296 867.54 565.878C867.54 464.173 853.57 362.871 853.57 261.22C853.57 223.511 851.245 185.975 847.695 148.691C845.717 127.931 840.871 101.18 825.521 85.8302C820.464 80.7729 810.69 77.9716 804.568 74.7437C792.674 68.4725 780.183 63.346 768.093 57.4486C735.821 41.7063 702.664 29.0894 666.873 24.7433C627.634 19.9785 588.098 18.6759 548.69 21.4173C514.938 23.7653 480.942 21.3484 447.137 23.4129C402.648 26.1298 357.786 25.1298 313.211 27.4041C269.536 29.6324 226.092 30.911 182.501 33.7234C160.819 35.1223 139.378 41.2684 117.755 43.8122C106.166 45.1756 97.8106 55.5196 88.5978 61.6615C69.2005 74.593 61.5 109 61.5 109Z" stroke="#981B27" stroke-width="40" stroke-linecap="round"/>
<path d="M55.5 109C47.811 120.676 63.189 97.3241 55.5 109ZM55.5 109C46.2066 123.112 49.4789 138.037 49.3381 154.234C49.0892 182.859 47.4843 209.248 41.7992 237.605C28.3682 304.599 7.67955 372.583 15.8567 441.598C20.942 484.518 26.8763 526.354 36.256 568.428C45.7528 611.028 52.9366 653.647 63.3072 696.145C67.828 714.672 71.2895 726.004 71.2895 744.705C71.2895 756.049 74.6085 760.545 86.5889 764.217C97.8799 767.677 109.149 770.115 120.957 770.204C142.545 770.365 163.626 774.195 185.148 774.195C227.577 774.195 269.906 772.199 312.311 772.199C353.17 772.199 393.717 761.75 434.596 765.215C465.32 767.818 495.819 772.902 526.615 775.193C570.834 778.482 615.463 782.354 659.764 783.951C686.563 784.917 711.36 779.757 737.592 775.082C761.516 770.818 787.047 778.445 810.763 772.864C819.015 770.923 835.43 766.053 840.032 758.23C855.914 731.231 868.392 694.24 863.092 661.777C858.034 630.797 861.54 597.296 861.54 565.878C861.54 464.173 847.57 362.871 847.57 261.22C847.57 223.511 845.245 185.975 841.695 148.691C839.717 127.931 834.871 101.18 819.521 85.8302C814.464 80.7729 804.69 77.9716 798.568 74.7437C786.674 68.4725 774.183 63.346 762.093 57.4486C729.821 41.7063 696.664 29.0894 660.873 24.7433C621.634 19.9785 582.098 18.6759 542.69 21.4173C508.938 23.7653 474.942 21.3484 441.137 23.4129C396.648 26.1298 351.786 25.1298 307.211 27.4041C263.536 29.6324 220.092 30.911 176.501 33.7234C154.819 35.1223 133.378 41.2684 111.755 43.8122C100.166 45.1756 91.8106 55.5196 82.5978 61.6615C63.2005 74.593 55.5 109 55.5 109Z" stroke="white" stroke-width="25" stroke-linecap="round"/>
</svg>
